<svg data-v-0dd9719b="" version="1.0" xmlns="http://www.w3.org/2000/svg" xmlns:xlink="http://www.w3.org/1999/xlink" width="100%" height="100%" viewBox="0 0 340.000000 250.000000" preserveAspectRatio="xMidYMid meet" color-interpolation-filters="sRGB" style="margin: auto;"> <rect data-v-0dd9719b="" x="0" y="0" width="100%" height="100%" fill="#fff" fill-opacity="1" class="background"></rect> <rect data-v-0dd9719b="" x="0" y="0" width="100%" height="100%" fill="url(#watermark)" fill-opacity="1" class="watermarklayer"></rect> <g data-v-0dd9719b="" fill="#333" class="icon-text-wrapper icon-svg-group iconsvg" transform="translate(50.125,95.03805160522461)"><g class="iconsvg-imagesvg" transform="translate(0,0)"><g><rect fill="#333" fill-opacity="0" stroke-width="2" x="0" y="0" width="60" height="59.9238966512529" class="image-rect"></rect> <svg x="0" y="0" width="60" height="59.9238966512529" filtersec="colorsb792337298" class="image-svg-svg primary" style="overflow: visible;"><svg xmlns="http://www.w3.org/2000/svg" viewBox="-0.013412523083388805 0 100.12681579589844 100"><g fill-rule="evenodd"><path d="M50.05 64.56a33.61 33.61 0 0 1-33.61-33.62 2.25 2.25 0 0 1 4.5 0 29.11 29.11 0 0 0 29.11 29.12 9 9 0 1 1 0 18 2.25 2.25 0 1 1 0-4.49 4.5 4.5 0 0 0 3.19-1.33 4.51 4.51 0 0 0-3.19-7.69zm0-12.31a21.31 21.31 0 0 1-2.25-42.5V0a50.05 50.05 0 0 0 0 100v-9.74a21.27 21.27 0 0 1-13.54-6.9 2.24 2.24 0 1 1 3.32-3 17 17 0 0 0 5.66 4.1 16.82 16.82 0 1 0 6.81-32.2z" fill="#0d72ff"></path><path d="M50.05 35.45a33.63 33.63 0 0 1 33.62 33.62 2.25 2.25 0 0 1-4.5 0A29.12 29.12 0 0 0 50.05 40a9 9 0 0 1 0-18 2.25 2.25 0 0 1 0 4.5 4.51 4.51 0 1 0 0 9zm0 12.3a21.32 21.32 0 0 1 2.25 42.51V100a50.05 50.05 0 0 0 0-100v9.75a21.36 21.36 0 0 1 13.55 6.89 2.24 2.24 0 0 1-3.33 3 16.82 16.82 0 1 0-12.47 28.1z" fill="#0daeff"></path></g></svg></svg> <!----></g></g> <g transform="translate(67,1.5713329315185547)"><g data-gra="path-name" fill-rule="" class="tp-name iconsvg-namesvg" transform="translate(0,0)"><g transform="scale(1)"><g><path d="M19.64-13.49L19.64-15.51 12.26-15.51 12.26-14.37Q12.26-13.49 13.1-13.49L13.1-13.49 19.64-13.49ZM19.64-18.72L19.64-20.74 13.32-20.74Q12.26-20.74 12.26-19.64L12.26-19.64 12.26-18.72 19.64-18.72ZM24.96-20.74L24.96-18.72 32.78-18.72 32.78-19.91Q32.78-20.74 31.95-20.74L31.95-20.74 24.96-20.74ZM24.96-15.51L24.96-13.49 31.73-13.49Q32.78-13.49 32.78-14.59L32.78-14.59 32.78-15.51 24.96-15.51ZM40.65 2.64L40.65 2.64 4.48 2.64Q2.37 2.64 2.37 0.53 2.37-1.58 4.48-1.58L4.48-1.58 19.64-1.58 19.64-3.96 7.6-3.96Q5.63-3.96 5.63-5.98L5.63-5.98Q5.63-7.95 7.6-7.95L7.6-7.95 19.64-7.95 19.64-9.98 9.98-9.98Q8.66-9.98 7.87-10.79 7.08-11.6 7.08-12.92L7.08-12.92 7.08-21.31Q7.08-22.63 7.87-23.44 8.66-24.26 9.98-24.26L9.98-24.26 19.64-24.26 19.64-25.97 4.66-25.97Q2.59-25.97 2.59-28.08L2.59-28.08Q2.59-30.15 4.66-30.15L4.66-30.15 19.64-30.15 19.64-32.12Q12.57-31.86 9.01-31.82L9.01-31.82Q7.91-31.77 7.34-32.17 6.77-32.56 6.5-33.57L6.5-33.57Q6.2-34.8 6.75-35.35 7.29-35.9 8.66-35.95L8.66-35.95Q24.92-36.43 34.45-37.88L34.45-37.88Q35.95-38.1 36.87-36.52L36.87-36.52Q37.66-35.24 37.4-34.52 37.13-33.79 35.68-33.57L35.68-33.57Q30.32-32.87 24.96-32.48L24.96-32.48 24.96-30.15 40.43-30.15Q42.5-30.15 42.5-28.08L42.5-28.08Q42.5-25.97 40.43-25.97L40.43-25.97 24.96-25.97 24.96-24.26 35.29-24.26Q36.61-24.26 37.4-23.44 38.19-22.63 38.19-21.31L38.19-21.31 38.19-12.92Q38.19-11.6 37.4-10.79 36.61-9.98 35.29-9.98L35.29-9.98 24.96-9.98 24.96-7.95 37.88-7.95Q39.86-7.95 39.86-5.98L39.86-5.98Q39.86-3.96 37.88-3.96L37.88-3.96 24.96-3.96 24.96-1.58 40.65-1.58Q42.76-1.58 42.76 0.53 42.76 2.64 40.65 2.64ZM85.34-27.77L85.34-27.77 56.29-27.77Q55.2-27.77 55.2-26.67L55.2-26.67 55.2-21.4Q55.2-7.16 52.08 1.05L52.08 1.05Q51.46 2.5 50.6 2.79 49.75 3.08 48.43 2.24L48.43 2.24Q46.19 0.75 47.37-1.93L47.37-1.93Q49.92-8.75 49.92-21.4L49.92-21.4 49.92-29.97Q49.92-31.29 50.71-32.1 51.5-32.92 52.82-32.92L52.82-32.92 66.93-32.92Q66.8-33.13 66.58-33.53 66.36-33.93 66.23-34.1L66.23-34.1Q64.6-36.61 67.5-37.71L67.5-37.71Q69.52-38.45 70.71-36.83L70.71-36.83Q72.07-34.72 72.86-32.92L72.86-32.92 85.34-32.92Q87.89-32.92 87.89-30.32L87.89-30.32Q87.89-27.77 85.34-27.77ZM73.87-20.35L73.87-20.35 84.68-20.35Q87.14-20.35 87.14-17.89L87.14-17.89Q87.14-15.34 84.68-15.34L84.68-15.34 74-15.34Q77.78-7.29 85.25-2.55L85.25-2.55Q86.97-1.58 87.28-0.64 87.58 0.31 86.48 1.8L86.48 1.8Q85.61 2.94 84.59 3.03 83.58 3.12 82.35 2.33L82.35 2.33Q75.76-2.11 71.28-9.8L71.28-9.8Q68.2-2.02 61 2.42L61 2.42Q58.18 3.96 56.73 2.2L56.73 2.2Q54.8-0.13 58.58-2.29L58.58-2.29Q65.35-6.77 67.41-15.34L67.41-15.34 59.15-15.34Q56.65-15.34 56.65-17.89L56.65-17.89Q56.65-20.35 59.15-20.35L59.15-20.35 68.29-20.35Q68.6-23.2 68.64-23.99L68.64-23.99Q68.82-26.59 71.5-26.59L71.5-26.59Q74.44-26.59 74.27-23.73L74.27-23.73Q74.22-23.07 74.05-21.77 73.87-20.48 73.87-20.35ZM98.79-25.88L103.1-25.88 103.1-30.63Q103.1-31.73 102-31.73L102-31.73 99.84-31.73Q98.79-31.73 98.79-30.63L98.79-30.63 98.79-25.88ZM103.1-21.18L98.79-21.18 98.79-14.68 102-14.68Q103.1-14.68 103.1-15.73L103.1-15.73 103.1-21.18ZM124.45-17.45L124.45-17.45 115.58-17.45 115.58-13.71Q115.58-12.66 116.63-12.66L116.63-12.66 124.45-12.66Q125.55-12.66 125.55-13.71L125.55-13.71 125.55-16.39Q125.55-17.45 124.45-17.45ZM111.62-36.52L111.62-36.52 129.2-36.52Q130.69-36.52 131.35-35.4 132.01-34.28 131.84-31.51L131.84-31.51Q131.44-25.84 130.34-24.65L130.34-24.65Q129.68-23.91 128.74-23.53 127.79-23.16 127-23.12 126.21-23.07 124.45-23.07L124.45-23.07Q122.08-23.16 121.6-24.83L121.6-24.83Q121.2-26.24 121.86-26.78 122.52-27.33 124.15-27.25L124.15-27.25 124.72-27.25Q125.6-27.25 126.04-27.69L126.04-27.69Q126.52-28.17 126.78-30.15L126.78-30.15Q126.96-31.86 125.86-31.86L125.86-31.86 120.76-31.86Q119.97-28.08 117.99-25.66 116.02-23.25 111.75-21.75L111.75-21.75 127.88-21.75Q129.2-21.75 130.01-20.94 130.83-20.13 130.83-18.81L130.83-18.81 130.83-11.25Q130.83-9.93 130.01-9.12 129.2-8.31 127.88-8.31L127.88-8.31 113.51-8.31Q112.19-8.31 111.38-9.12 110.57-9.93 110.57-11.25L110.57-11.25 110.57-21.36 110.48-21.31Q109.78-23.29 107.97-25.05L107.97-25.05 107.97-12.83Q107.97-11.51 107.16-10.7 106.35-9.89 105.03-9.89L105.03-9.89 98.79-9.89 98.79-9.8Q98.79-7.78 96.5-7.78L96.5-7.78Q93.78-7.78 93.78-10.24L93.78-10.24 93.78-33.49Q93.78-34.8 94.59-35.6 95.41-36.39 96.72-36.39L96.72-36.39 105.03-36.39Q106.35-36.39 107.16-35.6 107.97-34.8 107.97-33.49L107.97-33.49 107.97-25.27Q111.58-26.28 113.25-27.84 114.92-29.4 115.58-31.86L115.58-31.86 111.62-31.86Q109.25-31.86 109.25-34.19 109.25-36.52 111.62-36.52ZM101.21-3.38L101.21-3.38Q99.32 0.35 98.17 2.2L98.17 2.2Q96.94 4.09 94.79 3.16L94.79 3.16Q93.25 2.5 92.92 1.65 92.59 0.79 93.56-0.53L93.56-0.53Q95.27-3.16 96.15-5.05L96.15-5.05Q97.21-7.38 99.62-6.72L99.62-6.72Q102.39-6.02 101.21-3.38ZM105.42 1.05L105.42 1.05Q105.21-1.36 105.03-3.21L105.03-3.21Q104.68-5.71 107.23-5.98L107.23-5.98Q109.6-6.24 110-4L110-4Q110.35-1.93 110.57 0.83L110.57 0.83Q110.7 2.99 108.37 3.3L108.37 3.3Q105.47 3.78 105.42 1.05ZM115.53-0.83L115.53-0.83Q115.4-1.19 115.18-2 114.96-2.81 114.83-3.21L114.83-3.21Q114.08-5.76 116.81-6.24L116.81-6.24Q119.09-6.64 119.79-4.61L119.79-4.61Q120.81-1.54 121.2 0.13L121.2 0.13Q121.68 2.5 119.14 3.03L119.14 3.03Q116.37 3.56 115.93 0.97L115.93 0.97Q115.8 0.4 115.53-0.83ZM127.13 1.49L127.13 1.49Q125.55-1.67 124.58-3.43L124.58-3.43Q123.18-5.8 125.95-6.86L125.95-6.86Q128.1-7.65 129.24-5.84L129.24-5.84Q131.4-2.29 132.23-0.44L132.23-0.44Q132.76 0.79 132.39 1.49 132.01 2.2 130.74 2.77L130.74 2.77Q128.1 3.91 127.13 1.49ZM146.38-24.13L146.38-20.17 168.35-20.17Q169.41-20.17 169.41-21.23L169.41-21.23 169.41-23.03Q169.41-24.13 168.35-24.13L168.35-24.13 146.38-24.13ZM171.78-15.64L171.78-15.64 146.29-15.64Q145.72-5.8 142.6 0.7L142.6 0.7Q141.68 2.29 140.84 2.57 140.01 2.86 138.65 1.8L138.65 1.8Q136.67 0.13 138.16-2.64L138.16-2.64Q141.02-8.96 141.02-20.74L141.02-20.74 141.02-32.74Q141.02-33.66 141.57-34.06 142.12-34.45 143-34.15L143-34.15Q158.99-35.33 168.22-37.66L168.22-37.66Q169.1-37.88 169.69-37.64 170.29-37.4 170.99-36.69L170.99-36.69Q172.4-35.33 172.29-34.52 172.18-33.71 170.38-33.27L170.38-33.27Q160.22-31.07 146.38-30.1L146.38-30.1 146.38-28.61 171.78-28.61Q173.1-28.61 173.89-27.82 174.68-27.03 174.68-25.71L174.68-25.71 174.68-18.59Q174.68-17.27 173.89-16.46 173.1-15.64 171.78-15.64ZM168.71-7.78L168.71-7.78 153.33-7.78Q152.23-7.78 152.23-6.72L152.23-6.72 152.23-3.52Q152.23-2.42 153.33-2.42L153.33-2.42 168.71-2.42Q169.8-2.42 169.8-3.52L169.8-3.52 169.8-6.72Q169.8-7.78 168.71-7.78ZM150.03-12.3L150.03-12.3 172.22-12.3Q173.54-12.3 174.33-11.49 175.12-10.68 175.12-9.36L175.12-9.36 175.12-0.83Q175.12 0.48 174.33 1.27 173.54 2.07 172.22 2.07L172.22 2.07 150.03 2.07Q148.71 2.07 147.9 1.27 147.08 0.48 147.08-0.83L147.08-0.83 147.08-9.36Q147.08-10.68 147.9-11.49 148.71-12.3 150.03-12.3Z" transform="translate(-2.369999885559082, 37.94203567504883)"></path></g> <!----> <!----> <!----> <!----> <!----> <!----> <!----></g></g> <g data-gra="path-slogan" fill-rule="" class="tp-slogan iconsvg-slogansvg" fill="#333" transform="translate(25.019996643066406,47.40873718261719)"><!----> <!----> <g transform="scale(1, 1)"><g transform="scale(1)"><path d="M8.06-6.05L8.06-6.05L6.94-6.05Q6.52-7.78 4.55-7.83L4.55-7.83Q1.83-7.69 1.73-4.36L1.73-4.36Q1.73-0.80 4.59-0.80L4.59-0.80Q6.56-0.84 7.03-3.19L7.03-3.19L8.16-3.19Q7.64 0.05 4.36 0.14L4.36 0.14Q0.61 0 0.52-4.31L0.52-4.31Q0.70-8.63 4.55-8.81L4.55-8.81Q7.59-8.72 8.06-6.05ZM10.69-5.06L15.19-5.06L15.19-8.58L16.36-8.58L16.36 0L15.19 0L15.19-3.98L10.69-3.98L10.69 0L9.52 0L9.52-8.58L10.69-8.58L10.69-5.06ZM24.94-4.27L24.94-4.27Q24.75-7.64 21.94-7.83L21.94-7.83Q19.08-7.69 18.94-4.27L18.94-4.27Q19.08-0.94 21.94-0.80L21.94-0.80Q24.75-0.98 24.94-4.27ZM26.11-4.27L26.11-4.27Q25.83 0 21.94 0.14L21.94 0.14Q18 0 17.72-4.27L17.72-4.27Q17.95-8.72 21.94-8.81L21.94-8.81Q25.83-8.67 26.11-4.27ZM28.88-8.58L33.19-1.64L33.19-8.58L34.31-8.58L34.31 0L33 0L28.64-6.94L28.59-6.94L28.59 0L27.47 0L27.47-8.58L28.88-8.58ZM42.52-3.61L39.89-3.61L39.89-4.59L43.64-4.59L43.64 0L42.89 0L42.61-1.08Q41.63 0.09 39.80 0.14L39.80 0.14Q38.06 0.14 37.13-0.75L37.13-0.75Q35.72-2.06 35.77-4.36L35.77-4.36Q36.09-8.63 39.84-8.81L39.84-8.81Q43.03-8.63 43.50-6L43.50-6L42.38-6Q41.91-7.78 39.80-7.83L39.80-7.83Q37.13-7.64 36.98-4.31L36.98-4.31Q36.98-0.75 39.84-0.75L39.84-0.75Q40.88-0.75 41.63-1.31L41.63-1.31Q42.56-2.06 42.52-3.61L42.52-3.61ZM50.44-1.08L49.55-1.78L50.16-2.48L51.23-1.64Q52.22-2.63 52.22-4.27L52.22-4.27Q52.03-7.64 49.22-7.83L49.22-7.83Q46.36-7.69 46.22-4.27L46.22-4.27Q46.36-0.94 49.22-0.80L49.22-0.80Q49.92-0.80 50.44-1.08L50.44-1.08ZM52.17-0.94L53.30-0.05L52.73 0.56L51.42-0.33Q50.58 0.14 49.22 0.14L49.22 0.14Q45.28 0 45-4.27L45-4.27Q45.23-8.72 49.22-8.81L49.22-8.81Q53.11-8.67 53.39-4.27L53.39-4.27Q53.34-2.20 52.17-0.94L52.17-0.94ZM54.94-8.58L56.11-8.58L56.11 0L54.94 0L54.94-8.58ZM59.48-8.58L63.80-1.64L63.80-8.58L64.92-8.58L64.92 0L63.61 0L59.25-6.94L59.20-6.94L59.20 0L58.08 0L58.08-8.58L59.48-8.58ZM73.13-3.61L70.50-3.61L70.50-4.59L74.25-4.59L74.25 0L73.50 0L73.22-1.08Q72.23 0.09 70.41 0.14L70.41 0.14Q68.67 0.14 67.73-0.75L67.73-0.75Q66.33-2.06 66.38-4.36L66.38-4.36Q66.70-8.63 70.45-8.81L70.45-8.81Q73.64-8.63 74.11-6L74.11-6L72.98-6Q72.52-7.78 70.41-7.83L70.41-7.83Q67.73-7.64 67.59-4.31L67.59-4.31Q67.59-0.75 70.45-0.75L70.45-0.75Q71.48-0.75 72.23-1.31L72.23-1.31Q73.17-2.06 73.13-3.61L73.13-3.61ZM80.20-1.03L85.50-1.03L85.50 0L78.75 0L78.75-0.94L84-7.59L79.13-7.59L79.13-8.58L85.50-8.58L85.50-7.59L80.20-1.03ZM87.80-5.06L92.30-5.06L92.30-8.58L93.47-8.58L93.47 0L92.30 0L92.30-3.98L87.80-3.98L87.80 0L86.63 0L86.63-8.58L87.80-8.58L87.80-5.06ZM100.92 0L100.08-2.48L96.61-2.48L95.72 0L94.55 0L97.78-8.58L99.09-8.58L102.19 0L100.92 0ZM98.34-7.31L96.98-3.52L99.66-3.52L98.39-7.31L98.34-7.31ZM110.02-4.27L110.02-4.27Q109.83-7.64 107.02-7.83L107.02-7.83Q104.16-7.69 104.02-4.27L104.02-4.27Q104.16-0.94 107.02-0.80L107.02-0.80Q109.83-0.98 110.02-4.27ZM111.19-4.27L111.19-4.27Q110.91 0 107.02 0.14L107.02 0.14Q103.08 0 102.80-4.27L102.80-4.27Q103.03-8.72 107.02-8.81L107.02-8.81Q110.91-8.67 111.19-4.27ZM117.56-1.08L116.67-1.78L117.28-2.48L118.36-1.64Q119.34-2.63 119.34-4.27L119.34-4.27Q119.16-7.64 116.34-7.83L116.34-7.83Q113.48-7.69 113.34-4.27L113.34-4.27Q113.48-0.94 116.34-0.80L116.34-0.80Q117.05-0.80 117.56-1.08L117.56-1.08ZM119.30-0.94L120.42-0.05L119.86 0.56L118.55-0.33Q117.70 0.14 116.34 0.14L116.34 0.14Q112.41 0 112.13-4.27L112.13-4.27Q112.36-8.72 116.34-8.81L116.34-8.81Q120.23-8.67 120.52-4.27L120.52-4.27Q120.47-2.20 119.30-0.94L119.30-0.94ZM122.06-8.58L123.23-8.58L123.23 0L122.06 0L122.06-8.58Z" transform="translate(-0.515625, 8.8125)"></path></g></g></g></g></g><defs v-gra="od"></defs></svg>